<svg xmlns="http://www.w3.org/2000/svg" viewBox="0 0 512 512">
  <defs>
    <linearGradient id="bg" x1="0%" y1="0%" x2="100%" y2="100%">
      <stop offset="0%" stop-color="#8b5cf6"/>
      <stop offset="55%" stop-color="#ec4899"/>
      <stop offset="100%" stop-color="#38bdf8"/>
    </linearGradient>
  </defs>
  <rect width="512" height="512" fill="#030712"/>
  <rect x="64" y="64" width="384" height="384" rx="120" fill="url(#bg)"/>
  <path d="M156 214c20-32 54-49 100-49 31 0 58 8 81 24 9 7 12 17 6 25-7 8-17 9-27 2-16-11-35-16-59-16-31 0-52 10-64 31h93c12 0 20 8 20 19 0 12-8 19-20 19h-103c-1 5-1 10 0 16h103c12 0 20 7 20 19 0 11-8 19-20 19h-92c13 20 34 30 63 30 24 0 44-6 60-17 10-7 20-6 27 3 6 8 4 18-6 25-23 16-50 24-81 24-46 0-79-17-100-50-10-16-16-35-18-57h-25c-11 0-19-8-19-19 0-12 8-19 19-19h23a101 101 0 0 1 0-16h-23c-11 0-19-7-19-19 0-11 8-19 19-19h25c2-22 8-41 18-57Z" fill="#fff"/>
</svg>
